<svg xmlns="http://www.w3.org/2000/svg" xmlns:se="http://svg-edit.googlecode.com" xmlns:xlink="http://www.w3.org/1999/xlink" xmlns:dc="http://purl.org/dc/elements/1.1/" xmlns:cc="http://creativecommons.org/ns#" xmlns:rdf="http://www.w3.org/1999/02/22-rdf-syntax-ns#" xmlns:inkscape="http://www.inkscape.org/namespaces/inkscape" width="100" height="100">
    <title>my vector image</title>
    <!-- Created with Vector Paint - http://www.vectorpaint.yaks.com/ https://chrome.google.com/webstore/detail/hnbpdiengicdefcjecjbnjnoifekhgdo -->
    <rect id="backgroundrect" width="100%" height="100%" x="0" y="0" fill="#FFFFFF" stroke="none" class="" style=""/>
    <g class="currentLayer" style="">
        <title>Layer 1</title>
        <rect fill="#ffffff" stroke="#000000" stroke-width="2" stroke-linejoin="round" stroke-dashoffset="" fill-rule="nonzero" id="svg_1" x="1" y="1" width="98" height="98" style="color: rgb(0, 0, 0);" class="" fill-opacity="1" stroke-opacity="1"/>
        <path fill="#000000" fill-opacity="1" stroke="#000000" stroke-opacity="1" stroke-width="2" stroke-dasharray="none" stroke-linejoin="round" stroke-linecap="butt" stroke-dashoffset="" fill-rule="nonzero" opacity="1" marker-start="" marker-mid="" marker-end="" d="M36.88196134567261,50.781249701976776 C36.88196134567261,44.108475767775786 42.402844319356745,38.703528881073 49.21874922513962,38.703528881073 C56.03465413092249,38.703528881073 61.55553710460663,44.108475767775786 61.55553710460663,50.781249701976776 C61.55553710460663,57.454023636177766 56.03465413092249,62.858970522880554 49.21874922513962,62.858970522880554 C42.402844319356745,62.858970522880554 36.88196134567261,57.454023636177766 36.88196134567261,50.781249701976776 z" class="" id="svg_6"/>
        <path fill="#000000" fill-opacity="1" stroke="#000000" stroke-opacity="1" stroke-width="2" stroke-dasharray="none" stroke-linejoin="round" stroke-linecap="butt" stroke-dashoffset="" fill-rule="nonzero" opacity="1" marker-start="" marker-mid="" marker-end="" d="M7.249999523162842,19.531249701976776 C7.249999523162842,12.858475767775786 12.77088249684698,7.453528881072998 19.586787402629852,7.453528881072998 C26.402692308412725,7.453528881072998 31.923575282096863,12.858475767775786 31.923575282096863,19.531249701976776 C31.923575282096863,26.204023636177766 26.402692308412725,31.608970522880554 19.586787402629852,31.608970522880554 C12.77088249684698,31.608970522880554 7.249999523162842,26.204023636177766 7.249999523162842,19.531249701976776 z" class="" id="svg_5"/>
        <path fill="#000000" fill-opacity="1" stroke="#000000" stroke-opacity="1" stroke-width="2" stroke-dasharray="none" stroke-linejoin="round" stroke-linecap="butt" stroke-dashoffset="" fill-rule="nonzero" opacity="1" marker-start="" marker-mid="" marker-end="" d="M68.13196134567261,80.46874970197678 C68.13196134567261,73.79597576777579 73.65284431935675,68.391028881073 80.46874922513962,68.391028881073 C87.28465413092249,68.391028881073 92.80553710460663,73.79597576777579 92.80553710460663,80.46874970197678 C92.80553710460663,87.14152363617777 87.28465413092249,92.54647052288055 80.46874922513962,92.54647052288055 C73.65284431935675,92.54647052288055 68.13196134567261,87.14152363617777 68.13196134567261,80.46874970197678 z" class="" id="svg_3"/>
        <path fill="#000000" fill-opacity="1" stroke="#000000" stroke-opacity="1" stroke-width="2" stroke-dasharray="none" stroke-linejoin="round" stroke-linecap="butt" stroke-dashoffset="" fill-rule="nonzero" opacity="1" marker-start="" marker-mid="" marker-end="" d="M66.513925075531,20.312500536441803 C66.513925075531,13.63972660224082 72.03480804921514,8.234779715538025 78.85071295499802,8.234779715538025 C85.66661786078089,8.234779715538025 91.18750083446503,13.63972660224082 91.18750083446503,20.312500536441803 C91.18750083446503,26.985274470642793 85.66661786078089,32.39022135734558 78.85071295499802,32.39022135734558 C72.03480804921514,32.39022135734558 66.513925075531,26.985274470642793 66.513925075531,20.312500536441803 z" id="svg_4" class=""/>
        <path fill="#000000" fill-opacity="1" stroke="#000000" stroke-opacity="1" stroke-width="2" stroke-dasharray="none" stroke-linejoin="round" stroke-linecap="butt" stroke-dashoffset="" fill-rule="nonzero" opacity="1" marker-start="" marker-mid="" marker-end="" d="M8.812499523162842,81.45352905988693 C8.812499523162842,74.78075512568594 14.33338249684698,69.37580823898315 21.149287402629852,69.37580823898315 C27.965192308412725,69.37580823898315 33.48607528209686,74.78075512568594 33.48607528209686,81.45352905988693 C33.48607528209686,88.12630299408792 27.965192308412725,93.53124988079071 21.149287402629852,93.53124988079071 C14.33338249684698,93.53124988079071 8.812499523162842,88.12630299408792 8.812499523162842,81.45352905988693 z" class="" id="svg_7"/>
    </g>
</svg>