<svg xmlns="http://www.w3.org/2000/svg" xmlns:se="http://svg-edit.googlecode.com" xmlns:xlink="http://www.w3.org/1999/xlink"
    xmlns:dc="http://purl.org/dc/elements/1.1/" xmlns:cc="http://creativecommons.org/ns#" xmlns:rdf="http://www.w3.org/1999/02/22-rdf-syntax-ns#"
    xmlns:inkscape="http://www.inkscape.org/namespaces/inkscape" width="100" height="100">
    <title>my vector image</title>
    <!-- Created with Vector Paint - http://www.vectorpaint.yaks.com/ https://chrome.google.com/webstore/detail/hnbpdiengicdefcjecjbnjnoifekhgdo -->
    <rect id="backgroundrect" width="100%" height="100%" x="0" y="0" fill="#FFFFFF" stroke="none" class="" style="" />
    <g class="currentLayer">
        <title>Layer 1</title>
        <rect fill="#ffffff" stroke="#000000" stroke-width="2" stroke-linejoin="round" stroke-dashoffset="" fill-rule="nonzero" id="svg_1"
            x="1.78125" y="1.78125" width="98" height="98" style="color: rgb(0, 0, 0);" class="" fill-opacity="1" stroke-opacity="1"
        />
        <path fill="#000000" fill-opacity="1" stroke="#000000" stroke-opacity="1" stroke-width="2" stroke-dasharray="none"
            stroke-linejoin="round" stroke-linecap="butt" stroke-dashoffset="" fill-rule="nonzero" opacity="1" marker-start=""
            marker-mid="" marker-end="" d="M10.374999523162842,21.874999701976776 C10.374999523162842,15.202225767775786 15.89588249684698,9.797278881072998 22.711787402629852,9.797278881072998 C29.527692308412725,9.797278881072998 35.04857528209686,15.202225767775786 35.04857528209686,21.874999701976776 C35.04857528209686,28.547773636177766 29.527692308412725,33.952720522880554 22.711787402629852,33.952720522880554 C15.89588249684698,33.952720522880554 10.374999523162842,28.547773636177766 10.374999523162842,21.874999701976776 z"
            class="" id="svg_5" />
        <path fill="#000000" fill-opacity="1" stroke="#000000" stroke-opacity="1" stroke-width="2" stroke-dasharray="none"
            stroke-linejoin="round" stroke-linecap="butt" stroke-dashoffset="" fill-rule="nonzero" opacity="1" marker-start=""
            marker-mid="" marker-end="" d="M65.78821134567261,81.24999970197678 C65.78821134567261,74.57722576777579 71.30909431935675,69.172278881073 78.12499922513962,69.172278881073 C84.94090413092249,69.172278881073 90.46178710460663,74.57722576777579 90.46178710460663,81.24999970197678 C90.46178710460663,87.92277363617777 84.94090413092249,93.32772052288055 78.12499922513962,93.32772052288055 C71.30909431935675,93.32772052288055 65.78821134567261,87.92277363617777 65.78821134567261,81.24999970197678 z"
            class="" id="svg_3" />
        <path fill="#000000" fill-opacity="1" stroke="#000000" stroke-opacity="1" stroke-width="2" stroke-dasharray="none" stroke-linejoin="round"
            stroke-linecap="butt" stroke-dashoffset="" fill-rule="nonzero" opacity="1" marker-start="" marker-mid="" marker-end=""
            d="M66.513925075531,21.875000536441803 C66.513925075531,15.20222660224082 72.03480804921514,9.797279715538025 78.85071295499802,9.797279715538025 C85.66661786078089,9.797279715538025 91.18750083446503,15.20222660224082 91.18750083446503,21.875000536441803 C91.18750083446503,28.547774470642793 85.66661786078089,33.95272135734558 78.85071295499802,33.95272135734558 C72.03480804921514,33.95272135734558 66.513925075531,28.547774470642793 66.513925075531,21.875000536441803 z"
            id="svg_4" class="" />
        <path fill="#000000" fill-opacity="1" stroke="#000000" stroke-opacity="1" stroke-width="2" stroke-dasharray="none" stroke-linejoin="round"
            stroke-linecap="butt" stroke-dashoffset="" fill-rule="nonzero" opacity="1" marker-start="" marker-mid="" marker-end=""
            d="M10.374999523162842,81.45352905988693 C10.374999523162842,74.78075512568594 15.89588249684698,69.37580823898315 22.711787402629852,69.37580823898315 C29.527692308412725,69.37580823898315 35.04857528209686,74.78075512568594 35.04857528209686,81.45352905988693 C35.04857528209686,88.12630299408792 29.527692308412725,93.53124988079071 22.711787402629852,93.53124988079071 C15.89588249684698,93.53124988079071 10.374999523162842,88.12630299408792 10.374999523162842,81.45352905988693 z"
            class="" id="svg_7" />
    </g>
</svg>