<svg xmlns="http://www.w3.org/2000/svg" xmlns:se="http://svg-edit.googlecode.com" xmlns:xlink="http://www.w3.org/1999/xlink" xmlns:dc="http://purl.org/dc/elements/1.1/" xmlns:cc="http://creativecommons.org/ns#" xmlns:rdf="http://www.w3.org/1999/02/22-rdf-syntax-ns#" xmlns:inkscape="http://www.inkscape.org/namespaces/inkscape" width="100" height="100">
    <title>my vector image</title>
    <!-- Created with Vector Paint - http://www.vectorpaint.yaks.com/ https://chrome.google.com/webstore/detail/hnbpdiengicdefcjecjbnjnoifekhgdo -->
    <rect id="backgroundrect" width="100%" height="100%" x="0" y="0" fill="#FFFFFF" stroke="none" class="" style=""/>
    <g class="currentLayer" style="">
        <title>Layer 1</title>
        <rect fill="#ffffff" stroke="#000000" stroke-width="2" stroke-linejoin="round" stroke-dashoffset="" fill-rule="nonzero" id="svg_1" x="1" y="1" width="98" height="98" style="color: rgb(0, 0, 0);" class="" fill-opacity="1" stroke-opacity="1"/>
        <path fill="#000000" fill-opacity="1" stroke="#000000" stroke-opacity="1" stroke-width="2" stroke-dasharray="none" stroke-linejoin="round" stroke-linecap="butt" stroke-dashoffset="" fill-rule="nonzero" opacity="1" marker-start="" marker-mid="" marker-end="" d="M11.937499523162842,23.437499701976776 C11.937499523162842,16.764725767775786 17.45838249684698,11.359778881072998 24.274287402629852,11.359778881072998 C31.090192308412725,11.359778881072998 36.61107528209686,16.764725767775786 36.61107528209686,23.437499701976776 C36.61107528209686,30.110273636177766 31.090192308412725,35.515220522880554 24.274287402629852,35.515220522880554 C17.45838249684698,35.515220522880554 11.937499523162842,30.110273636177766 11.937499523162842,23.437499701976776 z" class="" id="svg_5"/>
        <path fill="#000000" fill-opacity="1" stroke="#000000" stroke-opacity="1" stroke-width="2" stroke-dasharray="none" stroke-linejoin="round" stroke-linecap="butt" stroke-dashoffset="" fill-rule="nonzero" opacity="1" marker-start="" marker-mid="" marker-end="" d="M64.22571134567261,79.68749970197678 C64.22571134567261,73.01472576777579 69.74659431935675,67.609778881073 76.56249922513962,67.609778881073 C83.37840413092249,67.609778881073 88.89928710460663,73.01472576777579 88.89928710460663,79.68749970197678 C88.89928710460663,86.36027363617777 83.37840413092249,91.76522052288055 76.56249922513962,91.76522052288055 C69.74659431935675,91.76522052288055 64.22571134567261,86.36027363617777 64.22571134567261,79.68749970197678 z" class="" id="svg_3"/>
        <path fill="#000000" fill-opacity="1" stroke="#000000" stroke-opacity="1" stroke-width="2" stroke-dasharray="none" stroke-linejoin="round" stroke-linecap="butt" stroke-dashoffset="" fill-rule="nonzero" opacity="1" marker-start="" marker-mid="" marker-end="" d="M64.170175075531,23.437500536441803 C64.170175075531,16.76472660224082 69.69105804921514,11.359779715538025 76.50696295499802,11.359779715538025 C83.32286786078089,11.359779715538025 88.84375083446503,16.76472660224082 88.84375083446503,23.437500536441803 C88.84375083446503,30.110274470642793 83.32286786078089,35.51522135734558 76.50696295499802,35.51522135734558 C69.69105804921514,35.51522135734558 64.170175075531,30.110274470642793 64.170175075531,23.437500536441803 z" id="svg_4" class=""/>
        <path fill="#000000" fill-opacity="1" stroke="#000000" stroke-opacity="1" stroke-width="2" stroke-dasharray="none" stroke-linejoin="round" stroke-linecap="butt" stroke-dashoffset="" fill-rule="nonzero" opacity="1" marker-start="" marker-mid="" marker-end="" d="M11.937499523162842,79.89102905988693 C11.937499523162842,73.21825512568594 17.45838249684698,67.81330823898315 24.274287402629852,67.81330823898315 C31.090192308412725,67.81330823898315 36.61107528209686,73.21825512568594 36.61107528209686,79.89102905988693 C36.61107528209686,86.56380299408792 31.090192308412725,91.96874988079071 24.274287402629852,91.96874988079071 C17.45838249684698,91.96874988079071 11.937499523162842,86.56380299408792 11.937499523162842,79.89102905988693 z" class="" id="svg_7"/>
    </g>
</svg>