<svg xmlns="http://www.w3.org/2000/svg" xmlns:se="http://svg-edit.googlecode.com" xmlns:xlink="http://www.w3.org/1999/xlink"
    xmlns:dc="http://purl.org/dc/elements/1.1/" xmlns:cc="http://creativecommons.org/ns#" xmlns:rdf="http://www.w3.org/1999/02/22-rdf-syntax-ns#"
    xmlns:inkscape="http://www.inkscape.org/namespaces/inkscape" width="100" height="100">
    <title>my vector image</title>
    <!-- Created with Vector Paint - http://www.vectorpaint.yaks.com/ https://chrome.google.com/webstore/detail/hnbpdiengicdefcjecjbnjnoifekhgdo -->
    <rect id="backgroundrect" width="100%" height="100%" x="0" y="0" fill="#FFFFFF" stroke="none" class="" style="" />
    <g class="currentLayer">
        <title>Layer 1</title>
        <rect fill="#ffffff" stroke="#000000" stroke-width="2" stroke-linejoin="round" stroke-dashoffset="" fill-rule="nonzero" id="svg_1"
            x="1.78125" y="1.78125" width="98" height="98" style="color: rgb(0, 0, 0);" class="" fill-opacity="1" stroke-opacity="1"
        />
        <path fill="#000000" fill-opacity="1" stroke="#000000" stroke-opacity="1" stroke-width="2" stroke-dasharray="none"
            stroke-linejoin="round" stroke-linecap="butt" stroke-dashoffset="" fill-rule="nonzero" opacity="1" marker-start=""
            marker-mid="" marker-end="" d="M66.31249952316284,51.04647034406662 C66.31249952316284,44.37369640986563 71.83338249684698,38.96874952316284 78.64928740262985,38.96874952316284 C85.46519230841272,38.96874952316284 90.98607528209686,44.37369640986563 90.98607528209686,51.04647034406662 C90.98607528209686,57.71924427826761 85.46519230841272,63.1241911649704 78.64928740262985,63.1241911649704 C71.83338249684698,63.1241911649704 66.31249952316284,57.71924427826761 66.31249952316284,51.04647034406662 z"
            class="" id="svg_8" />
        <path fill="#000000" fill-opacity="1" stroke="#000000" stroke-opacity="1" stroke-width="2" stroke-dasharray="none"
            stroke-linejoin="round" stroke-linecap="butt" stroke-dashoffset="" fill-rule="nonzero" opacity="1" marker-start=""
            marker-mid="" marker-end="" d="M10.374999523162842,51.562499701976776 C10.374999523162842,44.889725767775786 15.89588249684698,39.484778881073 22.711787402629852,39.484778881073 C29.527692308412725,39.484778881073 35.04857528209686,44.889725767775786 35.04857528209686,51.562499701976776 C35.04857528209686,58.235273636177766 29.527692308412725,63.640220522880554 22.711787402629852,63.640220522880554 C15.89588249684698,63.640220522880554 10.374999523162842,58.235273636177766 10.374999523162842,51.562499701976776 z"
            class="" id="svg_6" />
        <path fill="#000000" fill-opacity="1" stroke="#000000" stroke-opacity="1" stroke-width="2" stroke-dasharray="none"
            stroke-linejoin="round" stroke-linecap="butt" stroke-dashoffset="" fill-rule="nonzero" opacity="1" marker-start=""
            marker-mid="" marker-end="" d="M10.374999523162842,21.093749701976776 C10.374999523162842,14.420975767775786 15.89588249684698,9.016028881072998 22.711787402629852,9.016028881072998 C29.527692308412725,9.016028881072998 35.04857528209686,14.420975767775786 35.04857528209686,21.093749701976776 C35.04857528209686,27.766523636177766 29.527692308412725,33.171470522880554 22.711787402629852,33.171470522880554 C15.89588249684698,33.171470522880554 10.374999523162842,27.766523636177766 10.374999523162842,21.093749701976776 z"
            class="" id="svg_5" />
        <path fill="#000000" fill-opacity="1" stroke="#000000" stroke-opacity="1" stroke-width="2" stroke-dasharray="none"
            stroke-linejoin="round" stroke-linecap="butt" stroke-dashoffset="" fill-rule="nonzero" opacity="1" marker-start=""
            marker-mid="" marker-end="" d="M66.56946134567261,81.24999970197678 C66.56946134567261,74.57722576777579 72.09034431935675,69.172278881073 78.90624922513962,69.172278881073 C85.72215413092249,69.172278881073 91.24303710460663,74.57722576777579 91.24303710460663,81.24999970197678 C91.24303710460663,87.92277363617777 85.72215413092249,93.32772052288055 78.90624922513962,93.32772052288055 C72.09034431935675,93.32772052288055 66.56946134567261,87.92277363617777 66.56946134567261,81.24999970197678 z"
            class="" id="svg_3" />
        <path fill="#000000" fill-opacity="1" stroke="#000000" stroke-opacity="1" stroke-width="2" stroke-dasharray="none" stroke-linejoin="round"
            stroke-linecap="butt" stroke-dashoffset="" fill-rule="nonzero" opacity="1" marker-start="" marker-mid="" marker-end=""
            d="M66.513925075531,21.093750536441803 C66.513925075531,14.42097660224082 72.03480804921514,9.016029715538025 78.85071295499802,9.016029715538025 C85.66661786078089,9.016029715538025 91.18750083446503,14.42097660224082 91.18750083446503,21.093750536441803 C91.18750083446503,27.766524470642793 85.66661786078089,33.17147135734558 78.85071295499802,33.17147135734558 C72.03480804921514,33.17147135734558 66.513925075531,27.766524470642793 66.513925075531,21.093750536441803 z"
            id="svg_4" class="" />
        <path fill="#000000" fill-opacity="1" stroke="#000000" stroke-opacity="1" stroke-width="2" stroke-dasharray="none" stroke-linejoin="round"
            stroke-linecap="butt" stroke-dashoffset="" fill-rule="nonzero" opacity="1" marker-start="" marker-mid="" marker-end=""
            d="M11.156249523162842,81.45352905988693 C11.156249523162842,74.78075512568594 16.67713249684698,69.37580823898315 23.493037402629852,69.37580823898315 C30.308942308412725,69.37580823898315 35.82982528209686,74.78075512568594 35.82982528209686,81.45352905988693 C35.82982528209686,88.12630299408792 30.308942308412725,93.53124988079071 23.493037402629852,93.53124988079071 C16.67713249684698,93.53124988079071 11.156249523162842,88.12630299408792 11.156249523162842,81.45352905988693 z"
            class="" id="svg_7" />
    </g>
</svg>