<svg xmlns="http://www.w3.org/2000/svg" xmlns:se="http://svg-edit.googlecode.com" xmlns:xlink="http://www.w3.org/1999/xlink" xmlns:dc="http://purl.org/dc/elements/1.1/" xmlns:cc="http://creativecommons.org/ns#" xmlns:rdf="http://www.w3.org/1999/02/22-rdf-syntax-ns#" xmlns:inkscape="http://www.inkscape.org/namespaces/inkscape" width="100" height="100" style="">
    <title>my vector image</title>
    <!-- Created with Vector Paint - http://www.vectorpaint.yaks.com/ https://chrome.google.com/webstore/detail/hnbpdiengicdefcjecjbnjnoifekhgdo -->
    <rect id="backgroundrect" width="100%" height="100%" x="0" y="0" fill="#FFFFFF" stroke="none" class="" style=""/>
    <g class="currentLayer" style="">
        <title>Layer 1</title>
        <rect fill="#ffffff" stroke="#000000" stroke-width="2" stroke-linejoin="round" stroke-dashoffset="" fill-rule="nonzero" id="svg_1" x="1" y="1" width="98" height="98" style="color: rgb(0, 0, 0);" class="" fill-opacity="1" stroke-opacity="1"/>
        <path fill="#000000" fill-opacity="1" stroke="#000000" stroke-opacity="1" stroke-width="2" stroke-dasharray="none" stroke-linejoin="round" stroke-linecap="butt" stroke-dashoffset="" fill-rule="nonzero" opacity="1" marker-start="" marker-mid="" marker-end="" d="M65.73267316818237,49.999999701976776 C65.73267316818237,43.327225767775786 71.25355614186651,37.922278881073 78.06946104764938,37.922278881073 C84.88536595343226,37.922278881073 90.4062489271164,43.327225767775786 90.4062489271164,49.999999701976776 C90.4062489271164,56.672773636177766 84.88536595343226,62.077720522880554 78.06946104764938,62.077720522880554 C71.25355614186651,62.077720522880554 65.73267316818237,56.672773636177766 65.73267316818237,49.999999701976776 z" class="" id="svg_8"/>
        <path fill="#000000" fill-opacity="1" stroke="#000000" stroke-opacity="1" stroke-width="2" stroke-dasharray="none" stroke-linejoin="round" stroke-linecap="butt" stroke-dashoffset="" fill-rule="nonzero" opacity="1" marker-start="" marker-mid="" marker-end="" d="M9.593749523162842,49.999999701976776 C9.593749523162842,43.327225767775786 15.11463249684698,37.922278881073 21.930537402629852,37.922278881073 C28.746442308412725,37.922278881073 34.26732528209686,43.327225767775786 34.26732528209686,49.999999701976776 C34.26732528209686,56.672773636177766 28.746442308412725,62.077720522880554 21.930537402629852,62.077720522880554 C15.11463249684698,62.077720522880554 9.593749523162842,56.672773636177766 9.593749523162842,49.999999701976776 z" class="" id="svg_6"/>
        <path fill="#000000" fill-opacity="1" stroke="#000000" stroke-opacity="1" stroke-width="2" stroke-dasharray="none" stroke-linejoin="round" stroke-linecap="butt" stroke-dashoffset="" fill-rule="nonzero" opacity="1" marker-start="" marker-mid="" marker-end="" d="M9.593750476837158,19.531249701976776 C9.593750476837158,12.858475767775786 15.114633450521296,7.453528881072998 21.93053835630417,7.453528881072998 C28.74644326208704,7.453528881072998 34.26732623577118,12.858475767775786 34.26732623577118,19.531249701976776 C34.26732623577118,26.204023636177766 28.74644326208704,31.608970522880554 21.93053835630417,31.608970522880554 C15.114633450521296,31.608970522880554 9.593750476837158,26.204023636177766 9.593750476837158,19.531249701976776 z" class="" id="svg_5"/>
        <path fill="#000000" fill-opacity="1" stroke="#000000" stroke-opacity="1" stroke-width="2" stroke-dasharray="none" stroke-linejoin="round" stroke-linecap="butt" stroke-dashoffset="" fill-rule="nonzero" opacity="1" marker-start="" marker-mid="" marker-end="" d="M66.51392698287964,80.46874970197678 C66.51392698287964,73.79597576777579 72.03480995656378,68.391028881073 78.85071486234665,68.391028881073 C85.66661976812952,68.391028881073 91.18750274181366,73.79597576777579 91.18750274181366,80.46874970197678 C91.18750274181366,87.14152363617777 85.66661976812952,92.54647052288055 78.85071486234665,92.54647052288055 C72.03480995656378,92.54647052288055 66.51392698287964,87.14152363617777 66.51392698287964,80.46874970197678 z" class="" id="svg_3"/>
        <path fill="#000000" fill-opacity="1" stroke="#000000" stroke-opacity="1" stroke-width="2" stroke-dasharray="none" stroke-linejoin="round" stroke-linecap="butt" stroke-dashoffset="" fill-rule="nonzero" opacity="1" marker-start="" marker-mid="" marker-end="" d="M65.732675075531,18.750000536441803 C65.732675075531,12.07722660224082 71.25355804921514,6.672279715538025 78.06946295499802,6.672279715538025 C84.88536786078089,6.672279715538025 90.40625083446503,12.07722660224082 90.40625083446503,18.750000536441803 C90.40625083446503,25.422774470642793 84.88536786078089,30.82772135734558 78.06946295499802,30.82772135734558 C71.25355804921514,30.82772135734558 65.732675075531,25.422774470642793 65.732675075531,18.750000536441803 z" id="svg_4" class=""/>
        <path fill="#000000" fill-opacity="1" stroke="#000000" stroke-opacity="1" stroke-width="2" stroke-dasharray="none" stroke-linejoin="round" stroke-linecap="butt" stroke-dashoffset="" fill-rule="nonzero" opacity="1" marker-start="" marker-mid="" marker-end="" d="M10.374999523162842,81.45352905988693 C10.374999523162842,74.78075512568594 15.89588249684698,69.37580823898315 22.711787402629852,69.37580823898315 C29.527692308412725,69.37580823898315 35.04857528209686,74.78075512568594 35.04857528209686,81.45352905988693 C35.04857528209686,88.12630299408792 29.527692308412725,93.53124988079071 22.711787402629852,93.53124988079071 C15.89588249684698,93.53124988079071 10.374999523162842,88.12630299408792 10.374999523162842,81.45352905988693 z" class="" id="svg_7"/>
    </g>
</svg>